<svg width="28" height="27" viewBox="0 0 28 27" fill="none" xmlns="http://www.w3.org/2000/svg">
<path d="M1.60978 15.144L1.6712 15.2329L1.60978 15.144ZM1.60978 15.144L13.2992 3.32695L13.7324 2.88899L14.1657 3.32695L25.8551 15.144L26.8372 13.7228C26.8462 13.7083 26.8588 13.68 26.8547 13.6135C26.8531 13.5864 26.8492 13.5716 26.8472 13.5658L26.843 13.5617L26.8431 13.5616L23.1123 9.8026L22.9355 9.6244V9.37333V0.946577C22.9355 0.924539 22.934 0.90762 22.9321 0.895033H19.7966C19.7947 0.907619 19.7931 0.924539 19.7931 0.946577V4.97407V6.45946L18.75 5.40203L14.5966 1.19201C14.3453 0.945645 14.0671 0.833071 13.7324 0.833071C13.3976 0.833071 13.1193 0.945746 12.8679 1.19235L0.622328 13.5611L0.617623 13.5658C0.615697 13.5717 0.611794 13.5864 0.610136 13.6135C0.606073 13.68 0.618698 13.7083 0.627662 13.7228L1.60978 15.144ZM22.4546 26.1132H16.5223V18.7915V18.1821H15.913H11.5519H10.9425V18.7915V26.1132H5.0103C4.92519 26.1132 4.83309 26.087 4.71381 25.9424C4.59334 25.7963 4.52942 25.6257 4.52942 25.4007V15.6325L13.7324 6.43458L22.9355 15.6325V25.4007C22.9355 25.6257 22.8715 25.7963 22.7511 25.9424C22.6318 26.087 22.5397 26.1132 22.4546 26.1132ZM1.6616 15.2255C1.66434 15.2272 1.66656 15.2289 1.66822 15.2302L1.6468 15.2183C1.64741 15.2185 1.64835 15.2188 1.64958 15.2193C1.65301 15.2206 1.65724 15.2227 1.6616 15.2255Z" stroke="white" stroke-width="1.21876"/>
</svg>
