<svg width="18" height="19" viewBox="0 0 18 19" fill="none" xmlns="http://www.w3.org/2000/svg">
<path d="M8.36285 2.10102L1.04126 10.1352L0.503839 9.29102L0.50375 9.29084C0.503553 9.29035 0.503022 9.28894 0.502409 9.28623C0.501213 9.28095 0.499103 9.268 0.500413 9.24472C0.500638 9.24073 0.500933 9.23733 0.501246 9.23449L8.27624 0.710127C8.41902 0.558313 8.56356 0.5 8.73241 0.5C8.90115 0.5 9.04562 0.55824 9.18831 0.709841L11.8289 3.61521L12.6989 4.57247V3.27892V0.542769H14.4721V6.31549V6.50962L14.6031 6.65289L16.9636 9.23452C16.9639 9.23736 16.9642 9.24074 16.9644 9.24472C16.9657 9.268 16.9636 9.28095 16.9624 9.28623C16.962 9.28801 16.9616 9.28923 16.9614 9.29C16.9612 9.2904 16.9611 9.29067 16.9611 9.29084L16.961 9.29101L16.4236 10.1352L9.10197 2.10102L8.73241 1.69549L8.36285 2.10102ZM14.2788 17.7907H10.619V12.8163V12.3163H10.119H7.34582H6.84582V12.8163V17.7907H3.18604C3.17624 17.7907 3.17237 17.7893 3.1662 17.7859C3.15723 17.7809 3.1324 17.7643 3.09667 17.7173L2.69856 18.0198L3.09667 17.7173C3.03157 17.6316 2.99274 17.5265 2.99274 17.3783V10.6568L8.73241 4.43007L14.4721 10.6568V17.3783C14.4721 17.5265 14.4332 17.6316 14.3681 17.7173C14.3324 17.7643 14.3076 17.7809 14.2986 17.7859C14.2924 17.7893 14.2886 17.7907 14.2788 17.7907Z" fill="#F6F6F6" stroke="#FFF9F9"/>
</svg>
