<svg width="86" height="23" viewBox="0 0 86 23" fill="none" xmlns="http://www.w3.org/2000/svg">
<path d="M69.5233 3.60588V0.849609H85.9469V3.60588H79.3257V22.0708H76.1342V3.60588H69.5233Z" fill="#F6F6F6"/>
<path d="M63.3657 6.42417C63.2552 5.44324 62.7993 4.68337 61.998 4.14455C61.1966 3.59882 60.1881 3.32596 58.9723 3.32596C58.1019 3.32596 57.3489 3.46412 56.7134 3.74043C56.0778 4.00984 55.5839 4.38287 55.2316 4.85952C54.8862 5.32926 54.7135 5.86463 54.7135 6.46562C54.7135 6.9699 54.831 7.4051 55.0658 7.77122C55.3076 8.13734 55.6219 8.44475 56.0088 8.69343C56.4025 8.93521 56.8239 9.139 57.2729 9.30479C57.7219 9.46367 58.1537 9.59492 58.5682 9.69854L60.6405 10.2374C61.3175 10.4032 62.0118 10.6277 62.7233 10.9109C63.4348 11.1941 64.0945 11.5671 64.7024 12.03C65.3103 12.4928 65.8008 13.0662 66.1738 13.7501C66.5537 14.4339 66.7437 15.2525 66.7437 16.2058C66.7437 17.4078 66.4329 18.4751 65.8111 19.4077C65.1963 20.3402 64.3018 21.0759 63.1274 21.6147C61.96 22.1536 60.5473 22.423 58.8894 22.423C57.3006 22.423 55.9259 22.1708 54.7653 21.6666C53.6048 21.1623 52.6964 20.4473 52.0401 19.5216C51.3839 18.5891 51.0212 17.4838 50.9521 16.2058H54.1643C54.2265 16.9726 54.4752 17.6116 54.9104 18.1228C55.3525 18.6271 55.9155 19.0035 56.5994 19.2522C57.2902 19.494 58.0466 19.6149 58.8687 19.6149C59.7736 19.6149 60.5784 19.4733 61.283 19.1901C61.9945 18.8999 62.554 18.4993 62.9616 17.9881C63.3692 17.47 63.573 16.8655 63.573 16.1747C63.573 15.5461 63.3934 15.0315 63.0341 14.6308C62.6818 14.2302 62.2017 13.8986 61.5938 13.6361C60.9928 13.3736 60.3124 13.1422 59.5525 12.9418L57.045 12.2579C55.3456 11.7951 53.9986 11.1147 53.0038 10.2166C52.016 9.3186 51.5221 8.13044 51.5221 6.65213C51.5221 5.42943 51.8536 4.36215 52.5168 3.4503C53.18 2.53845 54.078 1.83039 55.2109 1.32611C56.3438 0.81492 57.6218 0.559326 59.0448 0.559326C60.4817 0.559326 61.7493 0.811466 62.8476 1.31575C63.9529 1.82003 64.8233 2.51428 65.4588 3.39849C66.0944 4.2758 66.4259 5.28436 66.4536 6.42417H63.3657Z" fill="#F6F6F6"/>
<path d="M47.7995 11.4601C47.7995 13.7259 47.385 15.6739 46.5561 17.3042C45.7271 18.9276 44.5908 20.1779 43.147 21.0552C41.7101 21.9256 40.0764 22.3608 38.2458 22.3608C36.4083 22.3608 34.7677 21.9256 33.3239 21.0552C31.8871 20.1779 30.7541 18.9241 29.9252 17.2938C29.0962 15.6635 28.6818 13.719 28.6818 11.4601C28.6818 9.19426 29.0962 7.24967 29.9252 5.6263C30.7541 3.99603 31.8871 2.74569 33.3239 1.87529C34.7677 0.997981 36.4083 0.559326 38.2458 0.559326C40.0764 0.559326 41.7101 0.997981 43.147 1.87529C44.5908 2.74569 45.7271 3.99603 46.5561 5.6263C47.385 7.24967 47.7995 9.19426 47.7995 11.4601ZM44.6288 11.4601C44.6288 9.73308 44.349 8.27896 43.7894 7.0977C43.2368 5.90953 42.4769 5.0115 41.5098 4.4036C40.5496 3.78879 39.4616 3.48139 38.2458 3.48139C37.0231 3.48139 35.9317 3.78879 34.9714 4.4036C34.0112 5.0115 33.2514 5.90953 32.6918 7.0977C32.1392 8.27896 31.8629 9.73308 31.8629 11.4601C31.8629 13.1871 32.1392 14.6446 32.6918 15.8328C33.2514 17.0141 34.0112 17.9121 34.9714 18.5269C35.9317 19.1348 37.0231 19.4387 38.2458 19.4387C39.4616 19.4387 40.5496 19.1348 41.5098 18.5269C42.4769 17.9121 43.2368 17.0141 43.7894 15.8328C44.349 14.6446 44.6288 13.1871 44.6288 11.4601Z" fill="#F6F6F6"/>
<path d="M25.5344 7.7505H22.3014C22.1771 7.0597 21.9457 6.4518 21.6072 5.9268C21.2687 5.4018 20.8542 4.95623 20.3638 4.59011C19.8733 4.22399 19.3241 3.94767 18.7162 3.76116C18.1152 3.57465 17.4762 3.48139 16.7993 3.48139C15.5766 3.48139 14.4817 3.78879 13.5145 4.4036C12.5543 5.01841 11.7945 5.91989 11.2349 7.10806C10.6823 8.29623 10.406 9.74689 10.406 11.4601C10.406 13.1871 10.6823 14.6446 11.2349 15.8328C11.7945 17.021 12.5578 17.919 13.5249 18.5269C14.492 19.1348 15.58 19.4387 16.7889 19.4387C17.459 19.4387 18.0945 19.3489 18.6955 19.1693C19.3034 18.9828 19.8526 18.71 20.343 18.3507C20.8335 17.9915 21.248 17.5529 21.5865 17.0348C21.9319 16.5098 22.1702 15.9088 22.3014 15.2318L25.5344 15.2422C25.3617 16.2853 25.0266 17.2455 24.5293 18.1228C24.0388 18.9932 23.4067 19.7461 22.633 20.3817C21.8662 21.0103 20.9889 21.4973 20.0011 21.8427C19.0133 22.1881 17.9356 22.3608 16.7682 22.3608C14.9307 22.3608 13.2935 21.9256 11.8566 21.0552C10.4198 20.1779 9.28688 18.9241 8.45792 17.2938C7.63588 15.6635 7.22485 13.719 7.22485 11.4601C7.22485 9.19426 7.63933 7.24967 8.46828 5.6263C9.29724 3.99603 10.4301 2.74569 11.867 1.87529C13.3038 0.997981 14.9376 0.559326 16.7682 0.559326C17.8942 0.559326 18.9442 0.721663 19.9182 1.04634C20.8991 1.3641 21.7799 1.83384 22.5605 2.45556C23.3411 3.07037 23.987 3.82333 24.4982 4.71446C25.0094 5.59867 25.3548 6.61069 25.5344 7.7505Z" fill="#F6F6F6"/>
<path d="M0.393738 22.0709V6.15497H3.49195V22.0709H0.393738Z" fill="white"/>
</svg>
