<svg width="27" height="24" viewBox="0 0 27 24" fill="none" xmlns="http://www.w3.org/2000/svg">
<path d="M16.5996 7.58374H20.1584" stroke="#FFFEFE" stroke-width="0.94" stroke-linecap="round" stroke-linejoin="round"/>
<path d="M18.379 5.80432L18.379 9.3631" stroke="#FFFEFE" stroke-linecap="round" stroke-linejoin="round"/>
<path d="M10.9056 15.2387V2.64709C10.9056 1.73743 11.643 1 12.5527 1H24.0823C24.992 1 25.7294 1.73743 25.7294 2.64709V10.8826C25.7294 11.7922 24.992 12.5296 24.0823 12.5296H14.9914C14.4911 12.5296 14.0178 12.7571 13.7053 13.1478L11.7856 15.5474C11.4938 15.9121 10.9056 15.7058 10.9056 15.2387Z" stroke="#FFFEFE"/>
<path d="M9.6152 15.588L6.25701 15.588" stroke="#FFFEFE" stroke-width="0.94" stroke-linecap="round" stroke-linejoin="round"/>
<path d="M14.9883 22.8114L14.9883 10.9295C14.9883 10.0711 14.2924 9.37524 13.4341 9.37524L2.55426 9.37524C1.69585 9.37524 1 10.0711 1 10.9295L1 18.7008C1 19.5592 1.69584 20.255 2.55426 20.255L11.1328 20.255C11.6049 20.255 12.0515 20.4697 12.3465 20.8384L14.1579 23.1027C14.4333 23.4469 14.9883 23.2522 14.9883 22.8114Z" stroke="#FFFEFE"/>
</svg>
