<svg width="23" height="23" viewBox="0 0 23 23" fill="none" xmlns="http://www.w3.org/2000/svg">
<path d="M11.3458 14.4495C9.63157 14.4495 8.24203 13.06 8.24203 11.3458C8.24203 9.63161 9.63157 8.24207 11.3458 8.24207C13.06 8.24207 14.4495 9.63161 14.4495 11.3458C14.4495 13.06 13.06 14.4495 11.3458 14.4495Z" stroke="#F6F6F6" stroke-linecap="round" stroke-linejoin="round"/>
<path d="M3.45978 9.6857L4.59544 6.94344L3.06912 5.13831L5.13828 3.06916L6.93358 4.60338L9.73408 3.45168L10.3781 1H12.4L13.0537 3.48416L15.7899 4.63753L17.5532 3.06916L19.6224 5.13831L18.1187 6.98902L19.237 9.73836L21.6915 10.3112V12.3804L19.2074 13.0585L18.0542 15.7942L19.6224 17.5532L17.5532 19.6224L15.7001 18.1122L13.0042 19.2213L12.3803 21.6916H10.3112L9.68577 19.2222L6.94352 18.0866C6.48644 18.4133 5.13828 19.6224 5.13828 19.6224L3.06912 17.5532L4.60454 15.7421L3.46858 12.999L1.00007 12.3568L0.999969 10.3112L3.45978 9.6857Z" stroke="#F6F6F6" stroke-linecap="round" stroke-linejoin="round"/>
</svg>
