<svg width="36" height="34" viewBox="0 0 36 34" fill="none" xmlns="http://www.w3.org/2000/svg">
<path d="M18.3457 21.5111C15.5549 21.5111 13.2925 19.4269 13.2925 16.8558C13.2925 14.2847 15.5549 12.2005 18.3457 12.2005C21.1366 12.2005 23.3989 14.2847 23.3989 16.8558C23.3989 19.4269 21.1366 21.5111 18.3457 21.5111Z" stroke="white" stroke-width="1.461" stroke-linecap="round" stroke-linejoin="round"/>
<path d="M5.50665 14.3658L7.35561 10.2527L4.87062 7.54516L8.23942 4.44162L11.1623 6.74281L15.7218 5.01537L16.7704 1.33807H20.0622L21.1266 5.06408L25.5813 6.79404L28.4522 4.44162L31.821 7.54516L29.3729 10.321L31.1935 14.4448L35.1898 15.304V18.4076L31.1453 19.4247L29.2678 23.5279L31.821 26.1664L28.4522 29.27L25.4351 27.0048L21.0459 28.6683L20.0302 32.3735H16.6614L15.6432 28.6697L11.1785 26.9663C10.4344 27.4564 8.23942 29.27 8.23942 29.27L4.87062 26.1664L7.37044 23.4499L5.52097 19.3355L1.502 18.3722L1.50183 15.304L5.50665 14.3658Z" stroke="white" stroke-width="1.461" stroke-linecap="round" stroke-linejoin="round"/>
</svg>
