<svg width="20" height="20" viewBox="0 0 20 20" fill="none" xmlns="http://www.w3.org/2000/svg">
<path d="M4.61423 15.1294L4.96778 14.7758L7.4767 12.2669L7.23301 12.0232L4.7241 14.5321L4.37054 14.8857L4.01699 14.5321L3.48382 13.9989C3.4838 13.9989 3.48379 13.9989 3.48377 13.9989C3.45144 13.9666 3.40762 13.9485 3.36192 13.9485C3.31621 13.9485 3.27236 13.9666 3.24003 13.9989L0.55048 16.6885C0.550463 16.6885 0.550445 16.6885 0.550427 16.6885C0.518138 16.7209 0.5 16.7647 0.5 16.8104C0.5 16.8561 0.518138 16.8999 0.550427 16.9322L0.55048 16.9323M4.61423 15.1294L0.55048 16.9323M4.61423 15.1294L4.96778 15.4829L5.50096 16.0161L4.61423 15.1294ZM0.55048 16.9323L2.56761 18.9494M0.55048 16.9323L2.56761 18.9494M2.56761 18.9494C2.56763 18.9494 2.56765 18.9495 2.56767 18.9495C2.59999 18.9818 2.64382 18.9999 2.68951 18.9999C2.7352 18.9999 2.77903 18.9818 2.81135 18.9495L2.81141 18.9494M2.56761 18.9494L3.16491 19.303L2.81141 18.9494M2.81141 18.9494L5.50096 16.2599L2.81141 18.9494ZM5.55144 16.138C5.55144 16.1837 5.5333 16.2275 5.50101 16.2598V16.0161C5.5333 16.0485 5.55144 16.0923 5.55144 16.138ZM2.33596 18.2304L2.68951 18.5839L3.04306 18.2304L4.78193 16.4915L5.13548 16.138L4.78193 15.7844L3.71548 14.718L3.36192 14.3644L3.00837 14.718L1.26951 16.4568L0.915956 16.8104L1.26951 17.1639L2.33596 18.2304Z" stroke="#F6F6F6"/>
<path d="M1.42212 2.74873L1.51826 2.50392L3.2054 4.19106L3.20531 4.19116L3.21365 4.19912C3.43464 4.41015 3.72845 4.5279 4.03402 4.5279C4.33958 4.5279 4.63339 4.41015 4.85439 4.19912L4.85447 4.19921L4.86233 4.19136C4.97135 4.08253 5.05784 3.95327 5.11685 3.81098C5.17586 3.66869 5.20623 3.51616 5.20623 3.36211C5.20623 3.20807 5.17586 3.05554 5.11685 2.91325C5.05785 2.77099 4.97139 2.64175 4.8624 2.53293C4.86238 2.53291 4.86236 2.53289 4.86233 2.53286L3.17644 0.84545L3.42181 0.749407L3.42181 0.749412L3.42402 0.748535C3.95884 0.536254 4.53756 0.458359 5.10948 0.521675C5.6814 0.58499 6.22906 0.787585 6.7045 1.11171C7.17994 1.43583 7.56864 1.8716 7.83656 2.38083C8.10447 2.89007 8.24343 3.45723 8.24125 4.03264L8.24125 4.0341C8.24099 4.34084 8.19954 4.64616 8.11802 4.94187L8.04067 5.22248L8.24649 5.4283L14.0716 11.2534L14.2773 11.4592L14.5579 11.3819C14.8537 11.3005 15.1591 11.259 15.466 11.2587L15.4674 11.2587C16.0429 11.2564 16.6102 11.3953 17.1196 11.6633C17.629 11.9312 18.0648 12.3201 18.3889 12.7957C18.713 13.2713 18.9155 13.8192 18.9786 14.3912C19.0417 14.9633 18.9635 15.5421 18.7508 16.0769L18.7499 16.0792L18.6542 16.3235L16.9667 14.6366L16.9668 14.6365L16.9585 14.6285C16.7375 14.4175 16.4437 14.2998 16.1381 14.2998C15.8326 14.2998 15.5388 14.4175 15.3178 14.6285L15.3177 14.6285L15.3101 14.6361C15.201 14.7448 15.1144 14.874 15.0553 15.0163C14.9962 15.1585 14.9657 15.311 14.9656 15.4651C14.9655 15.6191 14.9957 15.7717 15.0547 15.914C15.1136 16.0563 15.1999 16.1856 15.3089 16.2945C15.3089 16.2945 15.3089 16.2945 15.3089 16.2946L16.9965 17.9822L16.7513 18.0784L16.7491 18.0793C16.3404 18.2419 15.9047 18.3261 15.4648 18.3276C14.528 18.3262 13.63 17.9535 12.9675 17.291C12.3049 16.6284 11.9321 15.7301 11.9309 14.793C11.9312 14.4864 11.9727 14.1813 12.0541 13.8858L12.1315 13.6052L11.9257 13.3994L6.10124 7.57427L5.89546 7.36847L5.61488 7.44576C5.3189 7.52729 5.01333 7.56874 4.70633 7.56901L4.70477 7.56901C4.12923 7.57131 3.56191 7.43239 3.05256 7.16441C2.5432 6.89643 2.10737 6.5076 1.78326 6.03198C1.45915 5.55637 1.25667 5.00851 1.19357 4.43643C1.13047 3.86436 1.20868 3.28554 1.42134 2.75072L1.42134 2.75072L1.42212 2.74873ZM4.03335 4.85999C3.63246 4.85999 3.24692 4.70621 2.95611 4.43048L2.37558 3.84928L1.44847 2.92111L1.52262 4.23089C1.55107 4.73343 1.69867 5.22198 1.95323 5.65621C2.20779 6.09043 2.56201 6.45786 2.98662 6.72815C3.41123 6.99843 3.89406 7.16382 4.39522 7.21065C4.8959 7.25743 5.40053 7.18453 5.86749 6.99798L5.97143 6.95709L12.5425 13.5282L12.5025 13.6304C12.5022 13.631 12.502 13.6316 12.5017 13.6322C12.3153 14.099 12.2425 14.6035 12.2893 15.104C12.3361 15.6052 12.5015 16.088 12.7718 16.5126C13.0421 16.9372 13.4095 17.2914 13.8437 17.546C14.2779 17.8006 14.7665 17.9482 15.269 17.9766L16.5788 18.0508L15.6506 17.1237L15.0651 16.5388C15.0651 16.5388 15.065 16.5387 15.065 16.5387C14.9241 16.3978 14.8124 16.2306 14.7362 16.0466C14.6599 15.8625 14.6207 15.6652 14.6207 15.4659C14.6207 15.2666 14.6599 15.0693 14.7362 14.8852C14.8117 14.7029 14.9221 14.5371 15.0611 14.397C15.3519 14.1214 15.7373 13.9677 16.1381 13.9677C16.539 13.9677 16.9246 14.1215 17.2154 14.3972L17.7959 14.9784L18.7234 15.9069L18.6489 14.5967C18.6203 14.0941 18.4726 13.6056 18.2179 13.1714C17.9633 12.7372 17.609 12.3698 17.1844 12.0995C16.7597 11.8293 16.2769 11.6639 15.7757 11.6171C15.2751 11.5703 14.7705 11.6431 14.3036 11.8296C14.3031 11.8298 14.3026 11.83 14.302 11.8302L14.2003 11.8701L7.63 5.29986L7.67091 5.19588C7.85747 4.72886 7.93035 4.22418 7.88352 3.72346C7.83666 3.22224 7.6712 2.73937 7.40082 2.31474C7.13045 1.89011 6.76291 1.53591 6.32859 1.2814C5.89426 1.02689 5.40561 0.879373 4.90301 0.851045L3.59482 0.777312L4.52132 1.70381L5.10632 2.28881L5.10635 2.28884C5.24726 2.42973 5.35905 2.597 5.43531 2.7811C5.51158 2.96519 5.55083 3.16251 5.55083 3.36178C5.55083 3.56105 5.51158 3.75836 5.43531 3.94246C5.35978 4.12479 5.24941 4.29061 5.1104 4.43065C4.81961 4.70628 4.43415 4.85999 4.03335 4.85999Z" stroke="#F6F6F6"/>
<path d="M13.8799 7.74716L13.636 7.50305L18.3122 2.82682L18.313 2.82606C18.532 2.60609 18.655 2.3083 18.655 1.99787C18.655 1.68744 18.532 1.38966 18.313 1.16968L18.3131 1.16957L18.3039 1.16078C18.0828 0.949758 17.7889 0.832021 17.4833 0.832021C17.1776 0.832021 16.8838 0.949758 16.6627 1.16078L16.6626 1.16068L16.6543 1.16892L11.9782 5.84502L11.7345 5.60134L16.4063 0.929599C16.6971 0.653808 17.0827 0.5 17.4836 0.5C17.8843 0.5 18.2697 0.653644 18.5605 0.929157C18.8419 1.21328 18.9996 1.59733 18.9996 1.99821C18.9996 2.4006 18.84 2.78656 18.5557 3.07138C18.5557 3.07142 18.5556 3.07146 18.5556 3.0715L13.8799 7.74716Z" stroke="#F6F6F6"/>
</svg>
