<svg width="24" height="31" viewBox="0 0 24 31" fill="none" xmlns="http://www.w3.org/2000/svg">
<path d="M17.9919 9.07097H18.8479H20.0259C20.4263 9.07097 20.9135 9.27328 21.3408 9.82251C21.7749 10.3805 22.0598 11.2015 22.0598 12.1136V22.7129C22.0598 23.2234 21.899 23.6592 21.6859 23.9333C21.4795 24.1985 21.2919 24.2413 21.2038 24.2413H18.8479H17.9919V21.1987V19.6987H16.4919H7.06795H5.56795V21.1987V24.2413H4.71197H2.35598C2.26792 24.2413 2.08034 24.1985 1.87397 23.9333C1.66079 23.6592 1.5 23.2234 1.5 22.7129V12.1136C1.5 11.2015 1.7849 10.3805 2.219 9.82251C2.64628 9.27328 3.13348 9.07097 3.53397 9.07097H4.71197H5.56795H6.21197H7.06795H16.4919H17.3479H17.9919ZM16.4919 28.7555H17.3479V28.7839H6.21197V28.7555H7.06795H16.4919ZM6.21197 1.52839V1.5H17.3479V1.52839H16.4919H7.06795H6.21197ZM20.0259 16.6419H21.5259V15.1419V12.1136V10.6136H20.0259H15.3139H13.8139V12.1136V15.1419V16.6419H15.3139H20.0259Z" stroke="#722073" stroke-width="3"/>
</svg>
