<svg width="19" height="24" viewBox="0 0 19 24" fill="none" xmlns="http://www.w3.org/2000/svg">
<path d="M1 14.0906H4.25336H7.50672H10.7601H14.0134M1 14.0906V18.527M1 14.0906V9.65417M14.0134 14.0906V18.527M14.0134 14.0906V9.65417M1 18.527V22.3719C1 22.6986 1.19421 22.9634 1.43378 22.9634H4.25336H7.50672H10.7601H13.5797C13.8193 22.9634 14.0134 22.6986 14.0134 22.3719V18.527M1 18.527H4.25336H7.50672H10.7601H14.0134M1 9.65417V5.80929C1 5.48261 1.19421 5.21777 1.43378 5.21777H4.25336H7.50672H10.7601H13.5797C13.8193 5.21777 14.0134 5.48261 14.0134 5.80929V9.65417M1 9.65417H4.25336H7.50672H10.7601H14.0134" stroke="#CDCDA4" stroke-width="2"/>
<path d="M3.36609 18.0674V1.52786C3.36609 1.23633 3.60242 1 3.89395 1H14.1445C14.2844 1 14.4187 1.05561 14.5177 1.15461L17.2877 3.92455C17.3867 4.02355 17.4423 4.15781 17.4423 4.29781V18.0674C17.4423 18.3589 17.206 18.5952 16.9144 18.5952H3.89395C3.60242 18.5952 3.36609 18.3589 3.36609 18.0674Z" stroke="#CDCDA4" stroke-width="2" stroke-linecap="round" stroke-linejoin="round"/>
<path d="M6.88501 8.03802H13.9231" stroke="#CDCDA4" stroke-width="2" stroke-linecap="round" stroke-linejoin="round"/>
<path d="M6.88501 15.0761H13.9231" stroke="#CDCDA4" stroke-width="2" stroke-linecap="round" stroke-linejoin="round"/>
<path d="M6.88501 11.5572H10.4041" stroke="#CDCDA4" stroke-width="2" stroke-linecap="round" stroke-linejoin="round"/>
<path d="M13.9232 1V3.99119C13.9232 4.28271 14.1595 4.51904 14.4511 4.51904H17.4423" stroke="#CDCDA4" stroke-width="2" stroke-linecap="round" stroke-linejoin="round"/>
</svg>
