<svg width="29" height="25" viewBox="0 0 29 25" fill="none" xmlns="http://www.w3.org/2000/svg">
<path d="M7.35205 10.196V16.3267C7.35205 16.3267 7.35205 19.3921 14.5045 19.3921C21.657 19.3921 21.657 16.3267 21.657 16.3267V10.196" stroke="#ACA1C6" stroke-width="2"/>
<path d="M7.35205 4.06531V10.196C7.35205 10.196 7.35205 13.2613 14.5045 13.2613C21.657 13.2613 21.657 10.196 21.657 10.196V4.06531" stroke="#ACA1C6" stroke-width="2"/>
<path d="M14.5045 1C21.657 1 21.657 4.06534 21.657 4.06534C21.657 4.06534 21.657 7.13068 14.5045 7.13068C7.35205 7.13068 7.35205 4.06534 7.35205 4.06534C7.35205 4.06534 7.35205 1 14.5045 1Z" stroke="#ACA1C6" stroke-width="2"/>
<path d="M16.5421 18.4672V22.1472C16.5421 22.1472 16.5421 23.9871 21.8566 23.9871C27.171 23.9871 27.171 22.1472 27.171 22.1472V18.4672" stroke="#ACA1C6" stroke-width="2"/>
<path d="M16.5421 14.7871V18.4671C16.5421 18.4671 16.5421 20.3071 21.8566 20.3071C27.171 20.3071 27.171 18.4671 27.171 18.4671V14.7871" stroke="#ACA1C6" stroke-width="2"/>
<path d="M21.8566 12.9471C27.171 12.9471 27.171 14.7871 27.171 14.7871C27.171 14.7871 27.171 16.6271 21.8566 16.6271C16.5421 16.6271 16.5421 14.7871 16.5421 14.7871C16.5421 14.7871 16.5421 12.9471 21.8566 12.9471Z" stroke="#ACA1C6" stroke-width="2"/>
<path d="M13.7041 17.0827C13.7041 13.8881 10.922 11.1901 7.35205 11.1901C3.78214 11.1901 1 13.8881 1 17.0827C1 20.2772 3.78214 22.9752 7.35205 22.9752C10.922 22.9752 13.7041 20.2772 13.7041 17.0827Z" stroke="#ACA1C6" stroke-width="2"/>
</svg>
