<svg width="26" height="24" viewBox="0 0 26 24" fill="none" xmlns="http://www.w3.org/2000/svg">
<path d="M21.7059 23H3.58824C2.15879 23 1 21.8412 1 20.4117V8.76463C1 7.33519 2.15879 6.17639 3.58824 6.17639H21.7059C23.1354 6.17639 24.2942 7.33519 24.2942 8.76463V20.4117C24.2942 21.8412 23.1354 23 21.7059 23Z" stroke="#F6F6F6" stroke-width="2"/>
<path d="M6.17648 6.17648V1.77647C6.17648 1.34764 6.52412 1 6.95296 1H18.3412C18.7701 1 19.1177 1.34764 19.1177 1.77647V6.17648" stroke="#F6F6F6" stroke-width="2"/>
<path d="M10.0588 1V6.17648" stroke="#F6F6F6" stroke-width="2"/>
<path d="M12.6471 1V6.17648" stroke="#F6F6F6" stroke-width="2"/>
<path d="M18.4706 15.2353C18.1133 15.2353 17.8236 14.9455 17.8236 14.5882C17.8236 14.2309 18.1133 13.9412 18.4706 13.9412C18.8279 13.9412 19.1177 14.2309 19.1177 14.5882C19.1177 14.9455 18.8279 15.2353 18.4706 15.2353Z" stroke="#F6F6F6" stroke-width="2" stroke-linecap="round" stroke-linejoin="round"/>
<path d="M6.73165 15.7533C6.37435 15.7533 6.08459 15.4636 6.08459 15.1063C6.08459 14.749 6.37435 14.4592 6.73165 14.4592C7.08896 14.4592 7.37871 14.749 7.37871 15.1063C7.37871 15.4636 7.08896 15.7533 6.73165 15.7533Z" stroke="#F6F6F6" stroke-width="2" stroke-linecap="round" stroke-linejoin="round"/>
</svg>
