<svg width="21" height="26" viewBox="0 0 21 26" fill="none" xmlns="http://www.w3.org/2000/svg">
<mask id="path-1-inside-1_23_184" fill="white">
<path d="M3.8949 6.58105C3.8949 6.36293 3.96329 6.15373 4.08503 5.9995C4.20677 5.84526 4.37188 5.75861 4.54405 5.75861H12.3338C12.506 5.75861 12.6711 5.84526 12.7929 5.9995C12.9146 6.15373 12.983 6.36293 12.983 6.58105C12.983 6.79918 12.9146 7.00837 12.7929 7.16261C12.6711 7.31685 12.506 7.4035 12.3338 7.4035H4.54405C4.37188 7.4035 4.20677 7.31685 4.08503 7.16261C3.96329 7.00837 3.8949 6.79918 3.8949 6.58105ZM3.8949 9.87084C3.8949 9.65272 3.96329 9.44352 4.08503 9.28929C4.20677 9.13505 4.37188 9.0484 4.54405 9.0484H12.3338C12.506 9.0484 12.6711 9.13505 12.7929 9.28929C12.9146 9.44352 12.983 9.65272 12.983 9.87084C12.983 10.089 12.9146 10.2982 12.7929 10.4524C12.6711 10.6066 12.506 10.6933 12.3338 10.6933H4.54405C4.37188 10.6933 4.20677 10.6066 4.08503 10.4524C3.96329 10.2982 3.8949 10.089 3.8949 9.87084ZM3.8949 13.1606C3.8949 12.9425 3.96329 12.7333 4.08503 12.5791C4.20677 12.4248 4.37188 12.3382 4.54405 12.3382H12.3338C12.506 12.3382 12.6711 12.4248 12.7929 12.5791C12.9146 12.7333 12.983 12.9425 12.983 13.1606C12.983 13.3788 12.9146 13.588 12.7929 13.7422C12.6711 13.8964 12.506 13.9831 12.3338 13.9831H4.54405C4.37188 13.9831 4.20677 13.8964 4.08503 13.7422C3.96329 13.588 3.8949 13.3788 3.8949 13.1606ZM3.8949 16.4504C3.8949 16.2323 3.96329 16.0231 4.08503 15.8689C4.20677 15.7146 4.37188 15.628 4.54405 15.628H12.3338C12.506 15.628 12.6711 15.7146 12.7929 15.8689C12.9146 16.0231 12.983 16.2323 12.983 16.4504C12.983 16.6686 12.9146 16.8777 12.7929 17.032C12.6711 17.1862 12.506 17.2729 12.3338 17.2729H4.54405C4.37188 17.2729 4.20677 17.1862 4.08503 17.032C3.96329 16.8777 3.8949 16.6686 3.8949 16.4504ZM3.8949 19.7402C3.8949 19.5221 3.96329 19.3129 4.08503 19.1587C4.20677 19.0044 4.37188 18.9178 4.54405 18.9178H12.3338C12.506 18.9178 12.6711 19.0044 12.7929 19.1587C12.9146 19.3129 12.983 19.5221 12.983 19.7402C12.983 19.9583 12.9146 20.1675 12.7929 20.3218C12.6711 20.476 12.506 20.5627 12.3338 20.5627H4.54405C4.37188 20.5627 4.20677 20.476 4.08503 20.3218C3.96329 20.1675 3.8949 19.9583 3.8949 19.7402ZM14.9304 5.75861C14.7583 5.75861 14.5932 5.84526 14.4714 5.9995C14.3497 6.15373 14.2813 6.36293 14.2813 6.58105C14.2813 6.79918 14.3497 7.00837 14.4714 7.16261C14.5932 7.31685 14.7583 7.4035 14.9304 7.4035H16.2287C16.4009 7.4035 16.566 7.31685 16.6878 7.16261C16.8095 7.00837 16.8779 6.79918 16.8779 6.58105C16.8779 6.36293 16.8095 6.15373 16.6878 5.9995C16.566 5.84526 16.4009 5.75861 16.2287 5.75861H14.9304ZM14.9304 9.0484C14.7583 9.0484 14.5932 9.13505 14.4714 9.28929C14.3497 9.44352 14.2813 9.65272 14.2813 9.87084C14.2813 10.089 14.3497 10.2982 14.4714 10.4524C14.5932 10.6066 14.7583 10.6933 14.9304 10.6933H16.2287C16.4009 10.6933 16.566 10.6066 16.6878 10.4524C16.8095 10.2982 16.8779 10.089 16.8779 9.87084C16.8779 9.65272 16.8095 9.44352 16.6878 9.28929C16.566 9.13505 16.4009 9.0484 16.2287 9.0484H14.9304ZM14.9304 12.3382C14.7583 12.3382 14.5932 12.4248 14.4714 12.5791C14.3497 12.7333 14.2813 12.9425 14.2813 13.1606C14.2813 13.3788 14.3497 13.588 14.4714 13.7422C14.5932 13.8964 14.7583 13.9831 14.9304 13.9831H16.2287C16.4009 13.9831 16.566 13.8964 16.6878 13.7422C16.8095 13.588 16.8779 13.3788 16.8779 13.1606C16.8779 12.9425 16.8095 12.7333 16.6878 12.5791C16.566 12.4248 16.4009 12.3382 16.2287 12.3382H14.9304ZM14.9304 15.628C14.7583 15.628 14.5932 15.7146 14.4714 15.8689C14.3497 16.0231 14.2813 16.2323 14.2813 16.4504C14.2813 16.6686 14.3497 16.8777 14.4714 17.032C14.5932 17.1862 14.7583 17.2729 14.9304 17.2729H16.2287C16.4009 17.2729 16.566 17.1862 16.6878 17.032C16.8095 16.8777 16.8779 16.6686 16.8779 16.4504C16.8779 16.2323 16.8095 16.0231 16.6878 15.8689C16.566 15.7146 16.4009 15.628 16.2287 15.628H14.9304ZM14.9304 18.9178C14.7583 18.9178 14.5932 19.0044 14.4714 19.1587C14.3497 19.3129 14.2813 19.5221 14.2813 19.7402C14.2813 19.9583 14.3497 20.1675 14.4714 20.3218C14.5932 20.476 14.7583 20.5627 14.9304 20.5627H16.2287C16.4009 20.5627 16.566 20.476 16.6878 20.3218C16.8095 20.1675 16.8779 19.9583 16.8779 19.7402C16.8779 19.5221 16.8095 19.3129 16.6878 19.1587C16.566 19.0044 16.4009 18.9178 16.2287 18.9178H14.9304Z"/>
</mask>
<path d="M3.8949 6.58105C3.8949 6.36293 3.96329 6.15373 4.08503 5.9995C4.20677 5.84526 4.37188 5.75861 4.54405 5.75861H12.3338C12.506 5.75861 12.6711 5.84526 12.7929 5.9995C12.9146 6.15373 12.983 6.36293 12.983 6.58105C12.983 6.79918 12.9146 7.00837 12.7929 7.16261C12.6711 7.31685 12.506 7.4035 12.3338 7.4035H4.54405C4.37188 7.4035 4.20677 7.31685 4.08503 7.16261C3.96329 7.00837 3.8949 6.79918 3.8949 6.58105ZM3.8949 9.87084C3.8949 9.65272 3.96329 9.44352 4.08503 9.28929C4.20677 9.13505 4.37188 9.0484 4.54405 9.0484H12.3338C12.506 9.0484 12.6711 9.13505 12.7929 9.28929C12.9146 9.44352 12.983 9.65272 12.983 9.87084C12.983 10.089 12.9146 10.2982 12.7929 10.4524C12.6711 10.6066 12.506 10.6933 12.3338 10.6933H4.54405C4.37188 10.6933 4.20677 10.6066 4.08503 10.4524C3.96329 10.2982 3.8949 10.089 3.8949 9.87084ZM3.8949 13.1606C3.8949 12.9425 3.96329 12.7333 4.08503 12.5791C4.20677 12.4248 4.37188 12.3382 4.54405 12.3382H12.3338C12.506 12.3382 12.6711 12.4248 12.7929 12.5791C12.9146 12.7333 12.983 12.9425 12.983 13.1606C12.983 13.3788 12.9146 13.588 12.7929 13.7422C12.6711 13.8964 12.506 13.9831 12.3338 13.9831H4.54405C4.37188 13.9831 4.20677 13.8964 4.08503 13.7422C3.96329 13.588 3.8949 13.3788 3.8949 13.1606ZM3.8949 16.4504C3.8949 16.2323 3.96329 16.0231 4.08503 15.8689C4.20677 15.7146 4.37188 15.628 4.54405 15.628H12.3338C12.506 15.628 12.6711 15.7146 12.7929 15.8689C12.9146 16.0231 12.983 16.2323 12.983 16.4504C12.983 16.6686 12.9146 16.8777 12.7929 17.032C12.6711 17.1862 12.506 17.2729 12.3338 17.2729H4.54405C4.37188 17.2729 4.20677 17.1862 4.08503 17.032C3.96329 16.8777 3.8949 16.6686 3.8949 16.4504ZM3.8949 19.7402C3.8949 19.5221 3.96329 19.3129 4.08503 19.1587C4.20677 19.0044 4.37188 18.9178 4.54405 18.9178H12.3338C12.506 18.9178 12.6711 19.0044 12.7929 19.1587C12.9146 19.3129 12.983 19.5221 12.983 19.7402C12.983 19.9583 12.9146 20.1675 12.7929 20.3218C12.6711 20.476 12.506 20.5627 12.3338 20.5627H4.54405C4.37188 20.5627 4.20677 20.476 4.08503 20.3218C3.96329 20.1675 3.8949 19.9583 3.8949 19.7402ZM14.9304 5.75861C14.7583 5.75861 14.5932 5.84526 14.4714 5.9995C14.3497 6.15373 14.2813 6.36293 14.2813 6.58105C14.2813 6.79918 14.3497 7.00837 14.4714 7.16261C14.5932 7.31685 14.7583 7.4035 14.9304 7.4035H16.2287C16.4009 7.4035 16.566 7.31685 16.6878 7.16261C16.8095 7.00837 16.8779 6.79918 16.8779 6.58105C16.8779 6.36293 16.8095 6.15373 16.6878 5.9995C16.566 5.84526 16.4009 5.75861 16.2287 5.75861H14.9304ZM14.9304 9.0484C14.7583 9.0484 14.5932 9.13505 14.4714 9.28929C14.3497 9.44352 14.2813 9.65272 14.2813 9.87084C14.2813 10.089 14.3497 10.2982 14.4714 10.4524C14.5932 10.6066 14.7583 10.6933 14.9304 10.6933H16.2287C16.4009 10.6933 16.566 10.6066 16.6878 10.4524C16.8095 10.2982 16.8779 10.089 16.8779 9.87084C16.8779 9.65272 16.8095 9.44352 16.6878 9.28929C16.566 9.13505 16.4009 9.0484 16.2287 9.0484H14.9304ZM14.9304 12.3382C14.7583 12.3382 14.5932 12.4248 14.4714 12.5791C14.3497 12.7333 14.2813 12.9425 14.2813 13.1606C14.2813 13.3788 14.3497 13.588 14.4714 13.7422C14.5932 13.8964 14.7583 13.9831 14.9304 13.9831H16.2287C16.4009 13.9831 16.566 13.8964 16.6878 13.7422C16.8095 13.588 16.8779 13.3788 16.8779 13.1606C16.8779 12.9425 16.8095 12.7333 16.6878 12.5791C16.566 12.4248 16.4009 12.3382 16.2287 12.3382H14.9304ZM14.9304 15.628C14.7583 15.628 14.5932 15.7146 14.4714 15.8689C14.3497 16.0231 14.2813 16.2323 14.2813 16.4504C14.2813 16.6686 14.3497 16.8777 14.4714 17.032C14.5932 17.1862 14.7583 17.2729 14.9304 17.2729H16.2287C16.4009 17.2729 16.566 17.1862 16.6878 17.032C16.8095 16.8777 16.8779 16.6686 16.8779 16.4504C16.8779 16.2323 16.8095 16.0231 16.6878 15.8689C16.566 15.7146 16.4009 15.628 16.2287 15.628H14.9304ZM14.9304 18.9178C14.7583 18.9178 14.5932 19.0044 14.4714 19.1587C14.3497 19.3129 14.2813 19.5221 14.2813 19.7402C14.2813 19.9583 14.3497 20.1675 14.4714 20.3218C14.5932 20.476 14.7583 20.5627 14.9304 20.5627H16.2287C16.4009 20.5627 16.566 20.476 16.6878 20.3218C16.8095 20.1675 16.8779 19.9583 16.8779 19.7402C16.8779 19.5221 16.8095 19.3129 16.6878 19.1587C16.566 19.0044 16.4009 18.9178 16.2287 18.9178H14.9304Z" stroke="#972652" stroke-width="6" mask="url(#path-1-inside-1_23_184)"/>
<mask id="path-2-inside-2_23_184" fill="white">
<path d="M3.05619 0.241625C2.98346 0.1494 2.89446 0.0804042 2.79654 0.0403285C2.69862 0.000252783 2.59458 -0.00975467 2.493 0.0111316C2.39143 0.0320178 2.29523 0.0831992 2.21234 0.160454C2.12945 0.23771 2.06224 0.338825 2.01626 0.455461L1.36711 2.10036C1.32187 2.21472 1.29831 2.34089 1.2983 2.46881V23.8525H0.649149C0.476984 23.8525 0.311871 23.9391 0.190131 24.0933C0.0683923 24.2476 0 24.4568 0 24.6749C0 24.893 0.0683923 25.1022 0.190131 25.2565C0.311871 25.4107 0.476984 25.4973 0.649149 25.4973H20.1236C20.2958 25.4973 20.4609 25.4107 20.5826 25.2565C20.7044 25.1022 20.7728 24.893 20.7728 24.6749C20.7728 24.4568 20.7044 24.2476 20.5826 24.0933C20.4609 23.9391 20.2958 23.8525 20.1236 23.8525H19.4745V2.46881C19.4745 2.34089 19.4509 2.21472 19.4057 2.10036L18.7565 0.455461C18.7105 0.339122 18.6433 0.238284 18.5605 0.161235C18.4778 0.0841867 18.3817 0.0331272 18.2803 0.0122532C18.1789 -0.00862087 18.0751 0.00128652 17.9773 0.0411612C17.8795 0.0810358 17.7906 0.149739 17.7179 0.241625L16.8779 1.30587L16.0392 0.241625C15.9789 0.165033 15.9072 0.104266 15.8284 0.0628042C15.7495 0.0213422 15.665 0 15.5796 0C15.4942 0 15.4096 0.0213422 15.3308 0.0628042C15.2519 0.104266 15.1803 0.165033 15.12 0.241625L14.2813 1.30587L13.4426 0.241625C13.3823 0.165033 13.3106 0.104266 13.2318 0.0628042C13.1529 0.0213422 13.0684 0 12.983 0C12.8976 0 12.8131 0.0213422 12.7342 0.0628042C12.6553 0.104266 12.5837 0.165033 12.5234 0.241625L11.6847 1.30587L10.846 0.241625C10.7857 0.165033 10.7141 0.104266 10.6352 0.0628042C10.5563 0.0213422 10.4718 0 10.3864 0C10.301 0 10.2165 0.0213422 10.1376 0.0628042C10.0587 0.104266 9.98709 0.165033 9.92679 0.241625L9.08809 1.30587L8.24939 0.241625C8.18909 0.165033 8.11745 0.104266 8.03859 0.0628042C7.95972 0.0213422 7.87518 0 7.78979 0C7.70441 0 7.61986 0.0213422 7.54099 0.0628042C7.46213 0.104266 7.39049 0.165033 7.33019 0.241625L6.49149 1.30587L5.65279 0.241625C5.59249 0.165033 5.52086 0.104266 5.44199 0.0628042C5.36313 0.0213422 5.27858 0 5.19319 0C5.10781 0 5.02326 0.0213422 4.9444 0.0628042C4.86553 0.104266 4.7939 0.165033 4.7336 0.241625L3.8949 1.30587L3.05619 0.241625ZM2.77446 2.21221L3.4366 3.05111C3.55833 3.20529 3.72341 3.29191 3.89554 3.29191C4.06768 3.29191 4.23276 3.20529 4.35449 3.05111L5.19319 1.98686L6.03189 3.05111C6.0922 3.1277 6.16383 3.18846 6.24269 3.22993C6.32156 3.27139 6.40611 3.29273 6.49149 3.29273C6.57688 3.29273 6.66142 3.27139 6.74029 3.22993C6.81916 3.18846 6.89079 3.1277 6.95109 3.05111L7.78979 1.98686L8.62849 3.05111C8.68879 3.1277 8.76043 3.18846 8.83929 3.22993C8.91816 3.27139 9.0027 3.29273 9.08809 3.29273C9.17348 3.29273 9.25802 3.27139 9.33689 3.22993C9.41575 3.18846 9.48739 3.1277 9.54769 3.05111L10.3864 1.98686L11.2251 3.05111C11.2854 3.1277 11.357 3.18846 11.4359 3.22993C11.5148 3.27139 11.5993 3.29273 11.6847 3.29273C11.7701 3.29273 11.8546 3.27139 11.9335 3.22993C12.0123 3.18846 12.084 3.1277 12.1443 3.05111L12.983 1.98686L13.8217 3.05111C13.882 3.1277 13.9536 3.18846 14.0325 3.22993C14.1114 3.27139 14.1959 3.29273 14.2813 3.29273C14.3667 3.29273 14.4512 3.27139 14.5301 3.22993C14.6089 3.18846 14.6806 3.1277 14.7409 3.05111L15.5796 1.98686L16.4183 3.05111C16.4786 3.1277 16.5502 3.18846 16.6291 3.22993C16.7079 3.27139 16.7925 3.29273 16.8779 3.29273C16.9633 3.29273 17.0478 3.27139 17.1267 3.22993C17.2055 3.18846 17.2772 3.1277 17.3375 3.05111L17.9983 2.21221L18.1762 2.66291V23.8525H2.5966V2.66291L2.77446 2.21221Z"/>
</mask>
<path d="M3.05619 0.241625L5.41245 -1.61527L5.41176 -1.61615L3.05619 0.241625ZM2.01626 0.455461L4.80681 1.55674L4.80721 1.55572L2.01626 0.455461ZM1.36711 2.10036L4.15676 3.20391L4.15766 3.20163L1.36711 2.10036ZM1.2983 2.46881L-1.7017 2.46865V2.46881H1.2983ZM1.2983 23.8525V26.8525H4.2983V23.8525H1.2983ZM0 24.6749H-3H0ZM19.4745 23.8525H16.4745V26.8525H19.4745V23.8525ZM19.4745 2.46881H22.4745V2.46865L19.4745 2.46881ZM19.4057 2.10036L16.6151 3.20163L16.616 3.20391L19.4057 2.10036ZM18.7565 0.455461L21.5471 -0.645816L21.5461 -0.648347L18.7565 0.455461ZM17.7179 0.241625L15.3657 -1.62047L15.363 -1.61704L17.7179 0.241625ZM16.8779 1.30587L14.5216 3.16277L16.8761 6.15036L19.2327 3.16454L16.8779 1.30587ZM16.0392 0.241625L13.682 2.09739L13.6829 2.09852L16.0392 0.241625ZM15.5796 0L15.5796 -3L15.5796 0ZM15.12 0.241625L17.4762 2.09852L17.4771 2.09739L15.12 0.241625ZM14.2813 1.30587L11.925 3.16277L14.2813 6.15268L16.6375 3.16277L14.2813 1.30587ZM13.4426 0.241625L11.0854 2.09739L11.0863 2.09852L13.4426 0.241625ZM12.983 0V-3V0ZM12.5234 0.241625L14.8796 2.09852L14.8805 2.09739L12.5234 0.241625ZM11.6847 1.30587L9.32843 3.16277L11.6847 6.15268L14.0409 3.16277L11.6847 1.30587ZM10.846 0.241625L8.48884 2.09739L8.48973 2.09852L10.846 0.241625ZM10.3864 0V3V0ZM9.92679 0.241625L12.283 2.09852L12.2839 2.09739L9.92679 0.241625ZM9.08809 1.30587L6.73183 3.16277L9.08809 6.15268L11.4443 3.16277L9.08809 1.30587ZM8.24939 0.241625L5.89225 2.09739L5.89313 2.09852L8.24939 0.241625ZM7.78979 0V3V0ZM7.33019 0.241625L9.68645 2.09852L9.68734 2.09739L7.33019 0.241625ZM6.49149 1.30587L4.13524 3.16277L6.49149 6.15268L8.84775 3.16277L6.49149 1.30587ZM5.65279 0.241625L3.29565 2.09739L3.29654 2.09852L5.65279 0.241625ZM5.19319 0V3V0ZM4.7336 0.241625L7.08985 2.09852L7.09074 2.09739L4.7336 0.241625ZM3.8949 1.30587L1.53864 3.16277L3.8949 6.15268L6.25115 3.16277L3.8949 1.30587ZM2.77446 2.21221L5.12932 0.353544L1.89831 -3.74002L-0.0160895 1.11093L2.77446 2.21221ZM3.4366 3.05111L1.08174 4.90977L1.08201 4.91012L3.4366 3.05111ZM4.35449 3.05111L6.70908 4.91012L6.71075 4.908L4.35449 3.05111ZM5.19319 1.98686L7.54945 0.129965L5.19319 -2.85995L2.83694 0.129965L5.19319 1.98686ZM6.03189 3.05111L8.38904 1.19534L8.38815 1.19421L6.03189 3.05111ZM6.95109 3.05111L4.59483 1.19421L4.59395 1.19534L6.95109 3.05111ZM7.78979 1.98686L10.146 0.129965L7.78979 -2.85995L5.43353 0.129965L7.78979 1.98686ZM8.62849 3.05111L10.9856 1.19534L10.9847 1.19421L8.62849 3.05111ZM9.54769 3.05111L7.19143 1.19421L7.19055 1.19534L9.54769 3.05111ZM10.3864 1.98686L12.7426 0.129965L10.3864 -2.85995L8.03013 0.129965L10.3864 1.98686ZM11.2251 3.05111L13.5822 1.19534L13.5813 1.19421L11.2251 3.05111ZM11.6847 3.29273V0.292731V3.29273ZM12.1443 3.05111L9.78803 1.19421L9.78714 1.19534L12.1443 3.05111ZM12.983 1.98686L15.3392 0.129965L12.983 -2.85995L10.6267 0.129965L12.983 1.98686ZM13.8217 3.05111L16.1788 1.19534L16.1779 1.19421L13.8217 3.05111ZM14.2813 3.29273V0.292731V3.29273ZM14.7409 3.05111L12.3846 1.19421L12.3837 1.19534L14.7409 3.05111ZM15.5796 1.98686L17.9358 0.129965L15.5796 -2.85995L13.2233 0.129965L15.5796 1.98686ZM16.4183 3.05111L18.7754 1.19534L18.7745 1.19421L16.4183 3.05111ZM16.8779 3.29273V0.292731V3.29273ZM17.3375 3.05111L14.9808 1.19469L14.9803 1.19534L17.3375 3.05111ZM17.9983 2.21221L20.7889 1.11093L18.8723 -3.74538L15.6417 0.355793L17.9983 2.21221ZM18.1762 2.66291H21.1762V2.09236L20.9667 1.56163L18.1762 2.66291ZM18.1762 23.8525V26.8525H21.1762V23.8525H18.1762ZM2.5966 23.8525H-0.403403V26.8525H2.5966V23.8525ZM2.5966 2.66291L-0.193956 1.56163L-0.403403 2.09236V2.66291H2.5966ZM5.41176 -1.61615C5.05471 -2.06887 4.56079 -2.47915 3.93285 -2.73614L1.66023 2.8168C1.22813 2.63996 0.912213 2.36767 0.700632 2.0994L5.41176 -1.61615ZM3.93285 -2.73614C3.2956 -2.99695 2.58622 -3.0708 1.88877 -2.92739L3.09724 2.94965C2.60294 3.05129 2.10164 2.99745 1.66023 2.8168L3.93285 -2.73614ZM1.88877 -2.92739C1.19814 -2.78538 0.614186 -2.451 0.166942 -2.03417L4.25773 2.35507C3.97627 2.6174 3.58471 2.84941 3.09724 2.94965L1.88877 -2.92739ZM0.166942 -2.03417C-0.276315 -1.62105 -0.582443 -1.13248 -0.774697 -0.644799L4.80721 1.55572C4.70692 1.81013 4.53521 2.09647 4.25773 2.35507L0.166942 -2.03417ZM-0.774296 -0.645816L-1.42345 0.99908L4.15766 3.20163L4.80681 1.55674L-0.774296 -0.645816ZM-1.42255 0.996806C-1.61231 1.47651 -1.70168 1.97839 -1.7017 2.46865L4.2983 2.46897C4.29829 2.70339 4.25604 2.95294 4.15676 3.20391L-1.42255 0.996806ZM-1.7017 2.46881V23.8525H4.2983V2.46881H-1.7017ZM1.2983 20.8525H0.649149V26.8525H1.2983V20.8525ZM0.649149 20.8525C-0.578685 20.8525 -1.56502 21.4749 -2.16473 22.2347L2.54499 25.952C2.18876 26.4033 1.53265 26.8525 0.649149 26.8525V20.8525ZM-2.16473 22.2347C-2.75059 22.9769 -3 23.861 -3 24.6749H3C3 25.0526 2.88738 25.5182 2.54499 25.952L-2.16473 22.2347ZM-3 24.6749C-3 25.4888 -2.75059 26.3729 -2.16473 27.1151L2.54499 23.3978C2.88738 23.8316 3 24.2972 3 24.6749H-3ZM-2.16473 27.1151C-1.56502 27.8749 -0.578685 28.4973 0.649149 28.4973V22.4973C1.53265 22.4973 2.18876 22.9465 2.54499 23.3978L-2.16473 27.1151ZM0.649149 28.4973H20.1236V22.4973H0.649149V28.4973ZM20.1236 28.4973C21.3515 28.4973 22.3378 27.8749 22.9375 27.1151L18.2278 23.3978C18.584 22.9465 19.2401 22.4973 20.1236 22.4973V28.4973ZM22.9375 27.1151C23.5234 26.3729 23.7728 25.4888 23.7728 24.6749H17.7728C17.7728 24.2972 17.8854 23.8316 18.2278 23.3978L22.9375 27.1151ZM23.7728 24.6749C23.7728 23.861 23.5234 22.9769 22.9375 22.2347L18.2278 25.952C17.8854 25.5182 17.7728 25.0526 17.7728 24.6749H23.7728ZM22.9375 22.2347C22.3378 21.4749 21.3515 20.8525 20.1236 20.8525V26.8525C19.2401 26.8525 18.584 26.4033 18.2278 25.952L22.9375 22.2347ZM20.1236 20.8525H19.4745V26.8525H20.1236V20.8525ZM22.4745 23.8525V2.46881H16.4745V23.8525H22.4745ZM22.4745 2.46865C22.4745 1.97838 22.3851 1.4765 22.1953 0.996806L16.616 3.20391C16.5167 2.95295 16.4745 2.7034 16.4745 2.46897L22.4745 2.46865ZM22.1962 0.99908L21.5471 -0.645816L15.966 1.55674L16.6151 3.20163L22.1962 0.99908ZM21.5461 -0.648347C21.3535 -1.13508 21.0473 -1.62258 20.6044 -2.03476L16.5166 2.35724C16.2393 2.09915 16.0675 1.81333 15.967 1.55927L21.5461 -0.648347ZM20.6044 -2.03476C20.1576 -2.45064 19.5746 -2.7842 18.8853 -2.92612L17.6754 2.95062C17.1888 2.85046 16.7979 2.61902 16.5166 2.35724L20.6044 -2.03476ZM18.8853 -2.92612C18.1892 -3.06943 17.481 -2.99633 16.8445 -2.73673L19.1102 2.81905C18.6691 2.9989 18.1687 3.05219 17.6754 2.95062L18.8853 -2.92612ZM16.8445 -2.73673C16.2171 -2.4809 15.7232 -2.07203 15.3657 -1.62047L20.07 2.10372C19.858 2.37151 19.5419 2.64297 19.1102 2.81905L16.8445 -2.73673ZM15.363 -1.61704L14.523 -0.552794L19.2327 3.16454L20.0727 2.10029L15.363 -1.61704ZM19.2341 -0.551022L18.3954 -1.61527L13.6829 2.09852L14.5216 3.16277L19.2341 -0.551022ZM18.3963 -1.61414C18.1001 -1.99039 17.7101 -2.33725 17.2244 -2.59259L14.4324 2.7182C14.1044 2.54578 13.8577 2.32045 13.682 2.09739L18.3963 -1.61414ZM17.2244 -2.59259C16.7344 -2.85021 16.1728 -3 15.5796 -3V3C15.1571 3 14.7646 2.89289 14.4324 2.7182L17.2244 -2.59259ZM15.5796 -3C14.9864 -3 14.4248 -2.85021 13.9348 -2.59259L16.7268 2.7182C16.3945 2.89289 16.002 3 15.5796 3L15.5796 -3ZM13.9348 -2.59259C13.4491 -2.33725 13.0591 -1.99039 12.7628 -1.61414L17.4771 2.09739C17.3015 2.32045 17.0548 2.54578 16.7268 2.7182L13.9348 -2.59259ZM12.7637 -1.61527L11.925 -0.551022L16.6375 3.16277L17.4762 2.09852L12.7637 -1.61527ZM16.6375 -0.551022L15.7988 -1.61527L11.0863 2.09852L11.925 3.16277L16.6375 -0.551022ZM15.7997 -1.61414C15.5035 -1.99039 15.1135 -2.33725 14.6278 -2.59259L11.8358 2.7182C11.5078 2.54578 11.2611 2.32045 11.0854 2.09739L15.7997 -1.61414ZM14.6278 -2.59259C14.1378 -2.85021 13.5762 -3 12.983 -3V3C12.5606 3 12.168 2.89289 11.8358 2.7182L14.6278 -2.59259ZM12.983 -3C12.3898 -3 11.8282 -2.85021 11.3382 -2.59259L14.1302 2.7182C13.7979 2.89289 13.4054 3 12.983 3V-3ZM11.3382 -2.59259C10.8525 -2.33725 10.4625 -1.99039 10.1662 -1.61414L14.8805 2.09739C14.7049 2.32045 14.4582 2.54578 14.1302 2.7182L11.3382 -2.59259ZM10.1671 -1.61527L9.32843 -0.551022L14.0409 3.16277L14.8796 2.09852L10.1671 -1.61527ZM14.0409 -0.551022L13.2022 -1.61527L8.48973 2.09852L9.32843 3.16277L14.0409 -0.551022ZM13.2031 -1.61414C12.9069 -1.99039 12.5169 -2.33725 12.0312 -2.59259L9.23916 2.7182C8.9112 2.54578 8.66446 2.32045 8.48884 2.09739L13.2031 -1.61414ZM12.0312 -2.59259C11.5412 -2.85021 10.9796 -3 10.3864 -3V3C9.96395 3 9.57145 2.89289 9.23916 2.7182L12.0312 -2.59259ZM10.3864 -3C9.79319 -3 9.23159 -2.85021 8.74157 -2.59259L11.5336 2.7182C11.2013 2.89289 10.8088 3 10.3864 3V-3ZM8.74157 -2.59259C8.25587 -2.33724 7.86586 -1.99038 7.56965 -1.61414L12.2839 2.09739C12.1083 2.32045 11.8616 2.54577 11.5336 2.7182L8.74157 -2.59259ZM7.57053 -1.61527L6.73183 -0.551022L11.4443 3.16277L12.283 2.09852L7.57053 -1.61527ZM11.4443 -0.551022L10.6056 -1.61527L5.89313 2.09852L6.73183 3.16277L11.4443 -0.551022ZM10.6065 -1.61414C10.3103 -1.99038 9.92031 -2.33724 9.43461 -2.59259L6.64256 2.7182C6.31459 2.54577 6.06785 2.32045 5.89225 2.09739L10.6065 -1.61414ZM9.43461 -2.59259C8.94459 -2.85021 8.38299 -3 7.78979 -3L7.78979 3C7.36736 3 6.97486 2.89289 6.64256 2.7182L9.43461 -2.59259ZM7.78979 -3C7.19659 -3 6.63499 -2.85021 6.14497 -2.59259L8.93702 2.7182C8.60472 2.89289 8.21222 3 7.78979 3L7.78979 -3ZM6.14497 -2.59259C5.65927 -2.33724 5.26926 -1.99038 4.97305 -1.61414L9.68734 2.09739C9.51173 2.32045 9.26499 2.54577 8.93702 2.7182L6.14497 -2.59259ZM4.97394 -1.61527L4.13524 -0.551022L8.84775 3.16277L9.68645 2.09852L4.97394 -1.61527ZM8.84775 -0.551022L8.00905 -1.61527L3.29654 2.09852L4.13524 3.16277L8.84775 -0.551022ZM8.00993 -1.61414C7.71373 -1.99038 7.32372 -2.33724 6.83802 -2.59259L4.04597 2.7182C3.718 2.54577 3.47126 2.32045 3.29565 2.09739L8.00993 -1.61414ZM6.83802 -2.59259C6.34799 -2.85021 5.7864 -3 5.19319 -3V3C4.77076 3 4.37826 2.89289 4.04597 2.7182L6.83802 -2.59259ZM5.19319 -3C4.59999 -3 4.0384 -2.85021 3.54837 -2.59259L6.34042 2.7182C6.00813 2.89289 5.61562 3 5.19319 3V-3ZM3.54837 -2.59259C3.06267 -2.33724 2.67266 -1.99038 2.37645 -1.61414L7.09074 2.09739C6.91513 2.32045 6.66839 2.54577 6.34042 2.7182L3.54837 -2.59259ZM2.37734 -1.61527L1.53864 -0.551022L6.25115 3.16277L7.08985 2.09852L2.37734 -1.61527ZM6.25115 -0.551022L5.41245 -1.61527L0.699938 2.09852L1.53864 3.16277L6.25115 -0.551022ZM0.419604 4.07087L1.08174 4.90977L5.79146 1.19244L5.12932 0.353544L0.419604 4.07087ZM1.08201 4.91012C1.68175 5.66974 2.66796 6.29191 3.89554 6.29191V0.291908C4.77887 0.291908 5.43491 0.740847 5.79118 1.19209L1.08201 4.91012ZM3.89554 6.29191C5.12313 6.29191 6.10934 5.66974 6.70908 4.91012L1.99991 1.19209C2.35618 0.740845 3.01222 0.291908 3.89554 0.291908V6.29191ZM6.71075 4.908L7.54945 3.84375L2.83694 0.129965L1.99824 1.19421L6.71075 4.908ZM2.83694 3.84375L3.67564 4.908L8.38815 1.19421L7.54945 0.129965L2.83694 3.84375ZM3.67475 4.90688C3.97096 5.28311 4.36097 5.62997 4.84667 5.88532L7.63872 0.574533C7.96669 0.746956 8.21343 0.972282 8.38904 1.19534L3.67475 4.90688ZM4.84667 5.88532C5.33669 6.14294 5.89829 6.29273 6.49149 6.29273V0.292731C6.91393 0.292731 7.30643 0.399837 7.63872 0.574533L4.84667 5.88532ZM6.49149 6.29273C7.0847 6.29273 7.64629 6.14294 8.13631 5.88532L5.34427 0.574533C5.67656 0.399837 6.06906 0.292731 6.49149 0.292731V6.29273ZM8.13631 5.88532C8.62201 5.62997 9.01202 5.28311 9.30823 4.90688L4.59395 1.19534C4.76956 0.972282 5.0163 0.746956 5.34427 0.574533L8.13631 5.88532ZM9.30735 4.908L10.146 3.84375L5.43353 0.129965L4.59483 1.19421L9.30735 4.908ZM5.43353 3.84375L6.27223 4.908L10.9847 1.19421L10.146 0.129965L5.43353 3.84375ZM6.27135 4.90688C6.56756 5.28311 6.95757 5.62997 7.44327 5.88532L10.2353 0.574533C10.5633 0.746956 10.81 0.972282 10.9856 1.19534L6.27135 4.90688ZM7.44327 5.88532C7.93329 6.14294 8.49489 6.29273 9.08809 6.29273V0.292731C9.51052 0.292731 9.90302 0.399837 10.2353 0.574533L7.44327 5.88532ZM9.08809 6.29273C9.68129 6.29273 10.2429 6.14294 10.7329 5.88532L7.94086 0.574533C8.27315 0.399837 8.66566 0.292731 9.08809 0.292731V6.29273ZM10.7329 5.88532C11.2186 5.62997 11.6086 5.28311 11.9048 4.90688L7.19055 1.19534C7.36616 0.972282 7.6129 0.746956 7.94086 0.574533L10.7329 5.88532ZM11.9039 4.908L12.7426 3.84375L8.03013 0.129965L7.19143 1.19421L11.9039 4.908ZM8.03013 3.84375L8.86883 4.908L13.5813 1.19421L12.7426 0.129965L8.03013 3.84375ZM8.86795 4.90688C9.16416 5.28312 9.55417 5.62998 10.0399 5.88532L12.8319 0.574533C13.1599 0.746952 13.4066 0.972275 13.5822 1.19534L8.86795 4.90688ZM10.0399 5.88532C10.5299 6.14294 11.0915 6.29273 11.6847 6.29273V0.292731C12.1071 0.292731 12.4996 0.399839 12.8319 0.574533L10.0399 5.88532ZM11.6847 6.29273C12.2779 6.29273 12.8395 6.14294 13.3295 5.88532L10.5375 0.574533C10.8697 0.399839 11.2622 0.292731 11.6847 0.292731V6.29273ZM13.3295 5.88532C13.8152 5.62998 14.2052 5.28312 14.5014 4.90688L9.78714 1.19534C9.96276 0.972275 10.2095 0.746952 10.5375 0.574533L13.3295 5.88532ZM14.5005 4.908L15.3392 3.84375L10.6267 0.129965L9.78803 1.19421L14.5005 4.908ZM10.6267 3.84375L11.4654 4.908L16.1779 1.19421L15.3392 0.129965L10.6267 3.84375ZM11.4645 4.90688C11.7608 5.28312 12.1508 5.62998 12.6365 5.88532L15.4285 0.574533C15.7565 0.746952 16.0032 0.972275 16.1788 1.19534L11.4645 4.90688ZM12.6365 5.88532C13.1265 6.14294 13.6881 6.29273 14.2813 6.29273V0.292731C14.7037 0.292731 15.0962 0.399839 15.4285 0.574533L12.6365 5.88532ZM14.2813 6.29273C14.8745 6.29273 15.4361 6.14294 15.9261 5.88532L13.1341 0.574533C13.4663 0.399839 13.8588 0.292731 14.2813 0.292731V6.29273ZM15.9261 5.88532C16.4118 5.62998 16.8018 5.28312 17.098 4.90688L12.3837 1.19534C12.5594 0.972275 12.8061 0.746952 13.1341 0.574533L15.9261 5.88532ZM17.0971 4.908L17.9358 3.84375L13.2233 0.129965L12.3846 1.19421L17.0971 4.908ZM13.2233 3.84375L14.062 4.908L18.7745 1.19421L17.9358 0.129965L13.2233 3.84375ZM14.0611 4.90688C14.3574 5.28312 14.7474 5.62998 15.2331 5.88532L18.0251 0.574533C18.3531 0.746952 18.5998 0.972275 18.7754 1.19534L14.0611 4.90688ZM15.2331 5.88532C15.7231 6.14294 16.2847 6.29273 16.8779 6.29273V0.292731C17.3003 0.292731 17.6928 0.399839 18.0251 0.574533L15.2331 5.88532ZM16.8779 6.29273C17.4711 6.29273 18.0327 6.14294 18.5227 5.88532L15.7307 0.574533C16.0629 0.399839 16.4554 0.292731 16.8779 0.292731V6.29273ZM18.5227 5.88532C19.0084 5.62998 19.3984 5.28312 19.6946 4.90688L14.9803 1.19534C15.156 0.972275 15.4027 0.746952 15.7307 0.574533L18.5227 5.88532ZM19.6941 4.90752L20.3549 4.06863L15.6417 0.355793L14.9808 1.19469L19.6941 4.90752ZM15.2078 3.31349L15.3856 3.76419L20.9667 1.56163L20.7889 1.11093L15.2078 3.31349ZM15.1762 2.66291V23.8525H21.1762V2.66291H15.1762ZM18.1762 20.8525H2.5966V26.8525H18.1762V20.8525ZM5.5966 23.8525V2.66291H-0.403403V23.8525H5.5966ZM5.38715 3.76419L5.56502 3.31349L-0.0160895 1.11093L-0.193956 1.56163L5.38715 3.76419Z" fill="#972652" mask="url(#path-2-inside-2_23_184)"/>
</svg>
