<svg width="32" height="28" viewBox="0 0 32 28" fill="none" xmlns="http://www.w3.org/2000/svg">
<path d="M15.9916 1.50112C15.8623 1.50029 15.7349 1.53248 15.6215 1.59467L15.6126 1.59954L15.6039 1.60477C15.4844 1.67672 15.3861 1.77883 15.3187 1.90075L1.62519 25.2033C1.54523 25.3342 1.50209 25.4844 1.50041 25.6379C1.49875 25.7897 1.5377 25.9391 1.6131 26.0707C1.67714 26.1882 1.76882 26.2884 1.8803 26.3627L1.88755 26.3676L1.89497 26.3721C2.01604 26.4469 2.15621 26.4845 2.29822 26.4806H29.6817C29.8231 26.4843 29.9626 26.4469 30.0834 26.3728L30.0914 26.3679L30.0991 26.3627C30.2121 26.2875 30.3047 26.1855 30.3689 26.066C30.5151 25.801 30.522 25.4847 30.3559 25.2061C30.3555 25.2053 30.355 25.2046 30.3546 25.2038L16.6589 1.90101C16.5914 1.77863 16.4927 1.67623 16.3728 1.60429L16.3644 1.5993L16.3559 1.59464C16.2442 1.53341 16.119 1.50127 15.9916 1.50112ZM15.9916 1.50112C15.9903 1.50112 15.989 1.50112 15.9877 1.50113L15.9897 2.00112L15.9955 1.50116C15.9942 1.50114 15.9929 1.50113 15.9916 1.50112ZM17.5144 1.38279L17.5144 1.38281L17.517 1.38718L31.2173 24.7012L31.2176 24.7018C31.9451 25.936 31.0625 27.4789 29.69 27.4789H2.28745C0.91573 27.4789 0.0335328 25.9383 0.760246 24.7012L14.4625 1.38721L14.4625 1.38722L14.465 1.38279C14.619 1.11452 14.8411 0.891624 15.1088 0.736623C15.3765 0.581621 15.6804 0.5 15.9897 0.5C16.2991 0.5 16.6029 0.581621 16.8706 0.736622C17.1383 0.891624 17.3604 1.11452 17.5144 1.38279Z" stroke="#898042"/>
<path d="M14.6848 9.9346L14.6848 9.9346L14.6845 9.93177C14.6653 9.74937 14.6846 9.56495 14.7412 9.3905C14.7978 9.21604 14.8905 9.05544 15.0132 8.91911C15.1359 8.78278 15.2859 8.67376 15.4534 8.59914C15.621 8.52452 15.8023 8.48596 15.9857 8.48596C16.1692 8.48596 16.3505 8.52452 16.5181 8.59914C16.6856 8.67376 16.8356 8.78277 16.9583 8.91911L17.3225 8.59134L16.9583 8.91911C17.081 9.05544 17.1737 9.21604 17.2303 9.3905C17.2869 9.56495 17.3062 9.74936 17.287 9.93177L17.2867 9.9346L16.5873 16.9426L16.5872 16.9426L16.5866 16.9497C16.5738 17.1002 16.5049 17.2405 16.3936 17.3426C16.2824 17.4448 16.1368 17.5015 15.9857 17.5015C15.8347 17.5015 15.6891 17.4448 15.5779 17.3426C15.4666 17.2405 15.3977 17.1002 15.3849 16.9497L15.3849 16.9497L15.3842 16.9426L14.6848 9.9346ZM14.4915 21.984C14.4915 21.7872 14.5302 21.5924 14.6055 21.4106C14.6808 21.2288 14.7912 21.0637 14.9303 20.9245C15.0694 20.7854 15.2346 20.675 15.4164 20.5997C15.5982 20.5245 15.793 20.4857 15.9897 20.4857C16.1865 20.4857 16.3813 20.5245 16.5631 20.5997C16.7449 20.675 16.9101 20.7854 17.0492 20.9245C17.1883 21.0637 17.2987 21.2288 17.374 21.4106C17.4493 21.5924 17.488 21.7872 17.488 21.984C17.488 22.3814 17.3302 22.7625 17.0492 23.0434C16.7682 23.3244 16.3871 23.4823 15.9897 23.4823C15.5924 23.4823 15.2113 23.3244 14.9303 23.0434C14.6493 22.7625 14.4915 22.3814 14.4915 21.984Z" stroke="#898042"/>
</svg>
