<svg width="28" height="29" viewBox="0 0 28 29" fill="none" xmlns="http://www.w3.org/2000/svg">
<mask id="path-1-inside-1_23_7" fill="white">
<path d="M14.908 2.36368C14.6081 2.34183 14.3075 2.33088 14.0067 2.33086V0.603821C14.3507 0.603986 14.6945 0.61666 15.0376 0.641816L14.908 2.36368ZM18.4154 3.14085C17.8543 2.92722 17.2781 2.75462 16.6914 2.62446L17.0747 0.938867C17.745 1.08739 18.4048 1.28428 19.0454 1.52952L18.4154 3.14085ZM20.8131 4.36705C20.5628 4.20237 20.3066 4.04683 20.0447 3.90074L20.9076 2.39822C21.506 2.73281 22.0786 3.11032 22.621 3.5277L21.5446 4.89034C21.3073 4.70767 21.0633 4.5337 20.8131 4.36877V4.36705ZM24.0228 7.45845C23.6767 6.97311 23.2947 6.51362 22.88 6.08373L24.1471 4.89207C24.6196 5.38427 25.0572 5.91102 25.4545 6.46368L24.0228 7.45845ZM25.325 9.79341C25.2101 9.5196 25.0852 9.25001 24.9504 8.98516L26.5133 8.20799C26.8224 8.81433 27.0856 9.44238 27.3009 10.087L25.6382 10.6276C25.5442 10.3458 25.4397 10.0676 25.325 9.79341ZM26.2525 14.1231C26.2384 13.5296 26.1799 12.9379 26.0775 12.3529L27.8014 12.0593C27.9187 12.7259 27.9869 13.4029 28.0044 14.0799L26.2543 14.1231H26.2525ZM26.0233 16.7793C26.081 16.4857 26.1283 16.1938 26.165 15.8985L27.9029 16.1109C27.8189 16.7847 27.6843 17.4515 27.5004 18.1057L25.8132 17.6445C25.8938 17.3596 25.9638 17.0712 26.0233 16.7793ZM24.3571 20.8879C24.6791 20.3871 24.9627 19.8621 25.2077 19.3198L26.8073 20.0192C26.5273 20.641 26.2035 21.2385 25.836 21.8119L24.3571 20.8879ZM22.67 22.969C22.8835 22.7583 23.0883 22.5407 23.2825 22.3162L24.6091 23.444C24.3845 23.701 24.1504 23.9499 23.9073 24.19L22.67 22.969Z"/>
</mask>
<path d="M14.908 2.36368L14.6901 5.35575L17.6751 5.57322L17.8996 2.58869L14.908 2.36368ZM14.0067 2.33086L11.0067 2.33086V5.33069L14.0065 5.33086L14.0067 2.33086ZM14.0067 0.603821L14.0082 -2.39618L11.0067 -2.39762V0.603821L14.0067 0.603821ZM15.0376 0.641816L18.0291 0.866826L18.2545 -2.13032L15.257 -2.35015L15.0376 0.641816ZM18.4154 3.14085L17.3478 5.94447L20.1265 7.00258L21.2094 4.23334L18.4154 3.14085ZM16.6914 2.62446L13.7661 1.95928L13.0974 4.90004L16.0417 5.55325L16.6914 2.62446ZM17.0747 0.938867L17.7237 -1.99009L14.8109 -2.63551L14.1494 0.273684L17.0747 0.938867ZM19.0454 1.52952L21.8394 2.62201L22.9397 -0.191891L20.118 -1.27217L19.0454 1.52952ZM20.8131 4.36705L23.8131 4.36705V2.74999L22.4623 1.86103L20.8131 4.36705ZM20.0447 3.90074L17.4432 2.4068L15.9307 5.0406L18.5829 6.52051L20.0447 3.90074ZM20.9076 2.39822L22.3717 -0.220248L19.783 -1.66773L18.306 0.904271L20.9076 2.39822ZM22.621 3.5277L24.9751 5.38725L26.8583 3.00319L24.4507 1.15026L22.621 3.5277ZM21.5446 4.89034L19.7146 7.2675L22.0623 9.07489L23.8988 6.74989L21.5446 4.89034ZM20.8131 4.36877L17.8131 4.36877V5.98462L19.1623 6.87376L20.8131 4.36877ZM24.0228 7.45845L21.5805 9.20055L23.3012 11.613L25.7347 9.92208L24.0228 7.45845ZM22.88 6.08373L20.8247 3.89834L18.6115 5.97978L20.7208 8.16649L22.88 6.08373ZM24.1471 4.89207L26.3112 2.81442L24.2548 0.672475L22.0918 2.70668L24.1471 4.89207ZM25.4545 6.46368L27.1663 8.92731L29.6697 7.1878L27.8904 4.71258L25.4545 6.46368ZM25.325 9.79341L28.0924 8.63539L28.0913 8.63276L25.325 9.79341ZM24.9504 8.98516L23.6147 6.29894L20.9038 7.64695L22.2765 10.3454L24.9504 8.98516ZM26.5133 8.20799L29.1861 6.84556L27.8372 4.19924L25.1775 5.52177L26.5133 8.20799ZM27.3009 10.087L28.2285 12.94L31.1042 12.005L30.1464 9.13684L27.3009 10.087ZM25.6382 10.6276L22.7926 11.5775L23.7351 14.4009L26.5658 13.4806L25.6382 10.6276ZM26.2525 14.1231L23.2534 14.1946L23.3232 17.1231H26.2525V14.1231ZM26.0775 12.3529L25.5738 9.39547L22.603 9.90144L23.1224 12.87L26.0775 12.3529ZM27.8014 12.0593L30.7561 11.5396L30.2392 8.60092L27.2977 9.10188L27.8014 12.0593ZM28.0044 14.0799L28.0784 17.079L31.0811 17.0049L31.0034 14.0024L28.0044 14.0799ZM26.2543 14.1231V17.1231H26.2913L26.3283 17.1222L26.2543 14.1231ZM26.0233 16.7793L28.9628 17.3786L28.9649 17.3685L28.9669 17.3583L26.0233 16.7793ZM26.165 15.8985L26.529 12.9207L23.5577 12.5575L23.188 15.528L26.165 15.8985ZM27.9029 16.1109L30.8799 16.4823L31.2522 13.498L28.2669 13.1331L27.9029 16.1109ZM27.5004 18.1057L26.7095 20.9995L29.5823 21.7847L30.3884 18.9176L27.5004 18.1057ZM25.8132 17.6445L22.9263 16.8289L22.1036 19.7407L25.0223 20.5384L25.8132 17.6445ZM24.3571 20.8879L21.8337 19.2655L20.19 21.8218L22.7675 23.4322L24.3571 20.8879ZM25.2077 19.3198L26.4096 16.5711L23.6941 15.3837L22.4738 18.0845L25.2077 19.3198ZM26.8073 20.0192L29.5427 21.2512L30.7883 18.4857L28.0092 17.2705L26.8073 20.0192ZM25.836 21.8119L24.2464 24.3562L26.7614 25.9274L28.3617 23.4308L25.836 21.8119ZM22.67 22.969L20.5628 20.8336L18.3989 22.969L20.5628 25.1044L22.67 22.969ZM23.2825 22.3162L25.2256 20.0305L22.9598 18.1043L21.0139 20.3532L23.2825 22.3162ZM24.6091 23.444L26.868 25.4182L28.8695 23.1282L26.5522 21.1583L24.6091 23.444ZM23.9073 24.19L21.8002 26.3254L23.9088 28.4062L26.016 26.324L23.9073 24.19ZM15.126 -0.628393C14.7536 -0.655526 14.3803 -0.669116 14.0069 -0.669137L14.0065 5.33086C14.2346 5.33088 14.4626 5.33918 14.6901 5.35575L15.126 -0.628393ZM17.0067 2.33086V0.603821L11.0067 0.603821V2.33086L17.0067 2.33086ZM14.0053 3.60382C14.2765 3.60395 14.5477 3.61395 14.8181 3.63378L15.257 -2.35015C14.8414 -2.38063 14.4249 -2.39598 14.0082 -2.39618L14.0053 3.60382ZM12.046 0.416805L11.9165 2.13867L17.8996 2.58869L18.0291 0.866826L12.046 0.416805ZM19.4829 0.337227C18.7857 0.0717403 18.0699 -0.142665 17.3412 -0.304326L16.0417 5.55325C16.4864 5.65191 16.9229 5.7827 17.3478 5.94447L19.4829 0.337227ZM19.6168 3.28964L20.0001 1.60405L14.1494 0.273684L13.7661 1.95928L19.6168 3.28964ZM16.4257 3.86783C16.9556 3.98524 17.4736 4.14011 17.9728 4.3312L20.118 -1.27217C19.3361 -1.57156 18.5344 -1.81046 17.7237 -1.99009L16.4257 3.86783ZM16.2514 0.437018L15.6213 2.04835L21.2094 4.23334L21.8394 2.62201L16.2514 0.437018ZM22.4623 1.86103C22.1509 1.65614 21.8321 1.46266 21.5065 1.28098L18.5829 6.52051C18.781 6.63101 18.9747 6.74861 19.1638 6.87306L22.4623 1.86103ZM22.6463 5.39469L23.5091 3.89216L18.306 0.904271L17.4432 2.4068L22.6463 5.39469ZM19.4435 5.01668C19.9145 5.28007 20.365 5.57706 20.7913 5.90515L24.4507 1.15026C23.7923 0.643576 23.0974 0.185542 22.3717 -0.220248L19.4435 5.01668ZM20.2668 1.66816L19.1905 3.03079L23.8988 6.74989L24.9751 5.38725L20.2668 1.66816ZM23.3747 2.51318C23.0792 2.28568 22.7753 2.06908 22.4638 1.86379L19.1623 6.87376C19.3513 6.99832 19.5355 7.12966 19.7146 7.2675L23.3747 2.51318ZM23.8131 4.36877V4.36705L17.8131 4.36705V4.36877L23.8131 4.36877ZM26.4652 5.71636C26.033 5.11041 25.5563 4.53708 25.0392 4.00097L20.7208 8.16649C21.033 8.49016 21.3203 8.83581 21.5805 9.20055L26.4652 5.71636ZM24.9352 8.26911L26.2024 7.07746L22.0918 2.70668L20.8247 3.89834L24.9352 8.26911ZM21.983 6.96971C22.3561 7.35831 22.703 7.77576 23.0186 8.21477L27.8904 4.71258C27.4114 4.04628 26.8832 3.41023 26.3112 2.81442L21.983 6.96971ZM23.7426 4.00004L22.311 4.99482L25.7347 9.92208L27.1663 8.92731L23.7426 4.00004ZM28.0913 8.63276C27.9481 8.29128 27.7923 7.95512 27.6243 7.62495L22.2765 10.3454C22.378 10.5449 22.4721 10.7479 22.5586 10.9541L28.0913 8.63276ZM26.2862 11.6714L27.8491 10.8942L25.1775 5.52177L23.6147 6.29894L26.2862 11.6714ZM23.8405 9.57042C24.0819 10.044 24.2874 10.5343 24.4553 11.0372L30.1464 9.13684C29.8839 8.35048 29.5628 7.58464 29.1861 6.84556L23.8405 9.57042ZM26.3733 7.23401L24.7107 7.77457L26.5658 13.4806L28.2285 12.94L26.3733 7.23401ZM28.4839 9.67762C28.3663 9.32553 28.2358 8.97789 28.0924 8.63539L22.5575 10.9514C22.6436 11.1573 22.722 11.3661 22.7926 11.5775L28.4839 9.67762ZM29.2517 14.0516C29.234 13.3086 29.1607 12.568 29.0326 11.8358L23.1224 12.87C23.199 13.3078 23.2428 13.7506 23.2534 14.1946L29.2517 14.0516ZM26.5812 15.3103L28.3051 15.0167L27.2977 9.10188L25.5738 9.39547L26.5812 15.3103ZM24.8468 12.579C24.9385 13.1005 24.9918 13.6297 25.0054 14.1575L31.0034 14.0024C30.9821 13.1761 30.8989 12.3514 30.7561 11.5396L24.8468 12.579ZM27.9305 11.0808L26.1803 11.124L26.3283 17.1222L28.0784 17.079L27.9305 11.0808ZM26.2543 11.1231H26.2525V17.1231H26.2543V11.1231ZM28.9669 17.3583C29.0376 16.9988 29.0962 16.6373 29.1421 16.269L23.188 15.528C23.1603 15.7504 23.1245 15.9726 23.0797 16.2003L28.9669 17.3583ZM25.801 18.8763L27.5389 19.0888L28.2669 13.1331L26.529 12.9207L25.801 18.8763ZM24.926 15.7395C24.8605 16.2644 24.7557 16.7838 24.6124 17.2937L30.3884 18.9176C30.6129 18.1191 30.7772 17.3051 30.8799 16.4823L24.926 15.7395ZM28.2913 15.2118L26.6042 14.7507L25.0223 20.5384L26.7095 20.9995L28.2913 15.2118ZM28.7002 18.4602C28.8011 18.1034 28.8886 17.7428 28.9628 17.3786L23.0837 16.18C23.039 16.3996 22.9865 16.6158 22.9263 16.8289L28.7002 18.4602ZM26.8805 22.5104C27.285 21.8813 27.6383 21.2263 27.9416 20.555L22.4738 18.0845C22.2871 18.4978 22.0733 18.8929 21.8337 19.2655L26.8805 22.5104ZM24.0058 22.0685L25.6054 22.7679L28.0092 17.2705L26.4096 16.5711L24.0058 22.0685ZM24.072 18.7872C23.8522 19.2752 23.5985 19.7434 23.3103 20.193L28.3617 23.4308C28.8086 22.7336 29.2024 22.0067 29.5427 21.2512L24.072 18.7872ZM27.4256 19.2676L25.9467 18.3437L22.7675 23.4322L24.2464 24.3562L27.4256 19.2676ZM24.7771 25.1044C25.043 24.842 25.3021 24.567 25.5512 24.2792L21.0139 20.3532C20.8744 20.5144 20.7239 20.6746 20.5628 20.8336L24.7771 25.1044ZM21.3394 24.6019L22.6661 25.7297L26.5522 21.1583L25.2256 20.0305L21.3394 24.6019ZM22.3503 21.4697C22.1738 21.6717 21.9898 21.8673 21.7987 22.0561L26.016 26.324C26.311 26.0325 26.5952 25.7303 26.868 25.4182L22.3503 21.4697ZM26.0145 22.0547L24.7771 20.8336L20.5628 25.1044L21.8002 26.3254L26.0145 22.0547Z" fill="white" mask="url(#path-1-inside-1_23_7)"/>
<mask id="path-3-inside-2_23_7" fill="white">
<path d="M14.0067 2.33086C11.9921 2.33101 10.0085 2.82142 8.23185 3.75868C6.45515 4.69593 4.94011 6.05109 3.8209 7.70412C2.7017 9.35716 2.01288 11.257 1.81547 13.2355C1.61805 15.214 1.91812 17.21 2.68911 19.0466C3.4601 20.8833 4.67821 22.5041 6.23553 23.7653C7.79286 25.0265 9.64135 25.8892 11.6173 26.2771C13.5932 26.665 15.6356 26.566 17.5635 25.989C19.4914 25.412 21.2453 24.3747 22.67 22.969L23.9073 24.19C22.2792 25.7975 20.2744 26.9839 18.0706 27.6441C15.8668 28.3043 13.532 28.4179 11.2731 27.9748C9.01413 27.5317 6.90082 26.5457 5.12038 25.104C3.33993 23.6624 1.94732 21.8096 1.06595 19.7099C0.184567 17.6102 -0.158371 15.3284 0.0675172 13.0666C0.293406 10.8049 1.08115 8.63301 2.36094 6.74349C3.64074 4.85396 5.37308 3.30511 7.40446 2.23415C9.43585 1.1632 11.7036 0.603219 14.0067 0.603821V2.33086Z"/>
</mask>
<path d="M14.0067 2.33086L14.0069 5.33086L17.0067 5.33065V2.33086H14.0067ZM22.67 22.969L24.7771 20.8336L22.6701 18.7544L20.5629 20.8335L22.67 22.969ZM23.9073 24.19L26.0151 26.3248L28.1778 24.1894L26.0145 22.0547L23.9073 24.19ZM14.0067 0.603821L17.0067 0.603821V-2.39539L14.0075 -2.39618L14.0067 0.603821ZM14.0065 -0.669136C11.5056 -0.668958 9.04152 -0.0602786 6.8321 1.10524L9.6316 6.41211C10.9756 5.70313 12.4785 5.33097 14.0069 5.33086L14.0065 -0.669136ZM6.8321 1.10524C4.62248 2.27087 2.73395 3.95853 1.33673 6.02219L6.30507 9.38605C7.14626 8.14364 8.28782 7.12098 9.6316 6.41211L6.8321 1.10524ZM1.33673 6.02219C-0.0606451 8.08608 -0.922612 10.4613 -1.16971 12.9376L4.80064 13.5334C4.94838 12.0528 5.46404 10.6282 6.30507 9.38605L1.33673 6.02219ZM-1.16971 12.9376C-1.41681 15.4141 -1.04099 17.9115 -0.0770622 20.2078L5.45529 17.8855C4.87724 16.5084 4.65291 15.0139 4.80064 13.5334L-1.16971 12.9376ZM-0.0770622 20.2078C0.886781 22.5039 2.40779 24.5258 4.34748 26.0966L8.12359 21.4339C6.94862 20.4824 6.03342 19.2628 5.45529 17.8855L-0.0770622 20.2078ZM4.34748 26.0966C6.28696 27.6673 8.58575 28.7393 11.0394 29.2209L12.1952 23.3333C10.697 23.0392 9.29877 22.3856 8.12359 21.4339L4.34748 26.0966ZM11.0394 29.2209C13.4929 29.7026 16.0289 29.5798 18.4237 28.8631L16.7033 23.115C15.2422 23.5523 13.6935 23.6274 12.1952 23.3333L11.0394 29.2209ZM18.4237 28.8631C20.8186 28.1462 23.0014 26.8565 24.777 25.1045L20.5629 20.8335C19.4893 21.8929 18.1641 22.6777 16.7033 23.115L18.4237 28.8631ZM20.5628 25.1044L21.8001 26.3254L26.0145 22.0547L24.7771 20.8336L20.5628 25.1044ZM21.7996 22.0552C20.5224 23.3162 18.9465 24.25 17.2097 24.7703L18.9315 30.5179C21.6024 29.7178 24.036 28.2789 26.0151 26.3248L21.7996 22.0552ZM17.2097 24.7703C15.4728 25.2906 13.6317 25.3803 11.8505 25.0309L10.6956 30.9187C13.4323 31.4555 16.2608 31.318 18.9315 30.5179L17.2097 24.7703ZM11.8505 25.0309C10.0694 24.6816 8.40645 23.9047 7.00825 22.7725L3.2325 27.4355C5.39519 29.1867 7.9589 30.3819 10.6956 30.9187L11.8505 25.0309ZM7.00825 22.7725C5.61026 21.6405 4.52062 20.189 3.83213 18.5488L-1.70024 20.871C-0.62597 23.4303 1.0696 25.6842 3.2325 27.4355L7.00825 22.7725ZM3.83213 18.5488C3.14372 16.9088 2.87652 15.1285 3.05267 13.3648L-2.91763 12.7685C-3.19326 15.5283 -2.77459 18.3116 -1.70024 20.871L3.83213 18.5488ZM3.05267 13.3648C3.22882 11.601 3.84332 9.9045 4.84482 8.42585L-0.12294 5.06113C-1.68103 7.36153 -2.64201 10.0088 -2.91763 12.7685L3.05267 13.3648ZM4.84482 8.42585C5.84649 6.94696 7.2052 5.73059 8.80354 4.88794L6.00538 -0.419631C3.54095 0.879624 1.43499 2.76096 -0.12294 5.06113L4.84482 8.42585ZM8.80354 4.88794C10.4021 4.04519 12.1891 3.60335 14.0059 3.60382L14.0075 -2.39618C11.218 -2.39691 8.46962 -1.71878 6.00538 -0.419631L8.80354 4.88794ZM11.0067 0.603821V2.33086L17.0067 2.33086V0.603821L11.0067 0.603821Z" fill="white" mask="url(#path-3-inside-2_23_7)"/>
<mask id="path-5-inside-3_23_7" fill="white">
<path d="M13.1317 5.78503C13.3638 5.78503 13.5863 5.87601 13.7504 6.03795C13.9145 6.1999 14.0067 6.41954 14.0067 6.64856L14.0067 15.6464L19.6912 18.8518C19.8869 18.9683 20.0286 19.1557 20.0861 19.3739C20.1436 19.5921 20.1124 19.8239 19.999 20.0197C19.8856 20.2154 19.6992 20.3597 19.4794 20.4216C19.2597 20.4835 19.0242 20.4581 18.8232 20.3509L12.6976 16.8968C12.5637 16.8213 12.4524 16.7122 12.3749 16.5806C12.2975 16.449 12.2566 16.2995 12.2566 16.1473L12.2566 6.64856C12.2566 6.41954 12.3488 6.1999 12.5129 6.03795C12.677 5.87601 12.8996 5.78503 13.1317 5.78503Z"/>
</mask>
<path d="M13.1317 5.78503V8.78503V5.78503ZM14.0067 15.6464H11.0067V17.3989L12.5332 18.2596L14.0067 15.6464ZM19.6912 18.8518L21.2258 16.274L21.1955 16.256L21.1648 16.2387L19.6912 18.8518ZM18.8232 20.3509L17.3496 22.9641L17.3803 22.9814L17.4114 22.998L18.8232 20.3509ZM12.6976 16.8968L14.1712 14.2836L14.1707 14.2834L12.6976 16.8968ZM12.2566 16.1473H9.25659L9.25659 16.1483L12.2566 16.1473ZM13.1317 8.78503C12.5809 8.78503 12.0447 8.5695 11.6433 8.17333L15.8576 3.90258C15.1279 3.18253 14.1466 2.78503 13.1317 2.78503V8.78503ZM11.6433 8.17333C11.2404 7.77582 11.0067 7.22815 11.0067 6.64856L17.0067 6.64856C17.0067 5.61092 16.5887 4.62397 15.8576 3.90258L11.6433 8.17333ZM11.0067 6.64856L11.0067 15.6464H17.0067V6.64856L11.0067 6.64856ZM12.5332 18.2596L18.2177 21.465L21.1648 16.2387L15.4803 13.0333L12.5332 18.2596ZM18.1567 21.4297C17.6837 21.1481 17.33 20.6879 17.1852 20.1384L22.9871 18.6094C22.7273 17.6235 22.0901 16.7885 21.2258 16.274L18.1567 21.4297ZM17.1852 20.1384C17.0401 19.588 17.1201 19.0046 17.4029 18.5163L22.5951 21.523C23.1046 20.6432 23.2472 19.5963 22.9871 18.6094L17.1852 20.1384ZM17.4029 18.5163C17.6848 18.0294 18.1415 17.6817 18.666 17.534L20.2929 23.3092C21.2568 23.0377 22.0865 22.4015 22.5951 21.523L17.4029 18.5163ZM18.666 17.534C19.1896 17.3865 19.7515 17.446 20.2349 17.7038L17.4114 22.998C18.2969 23.4702 19.3299 23.5805 20.2929 23.3092L18.666 17.534ZM20.2967 17.7377L14.1712 14.2836L11.2241 19.51L17.3496 22.9641L20.2967 17.7377ZM14.1707 14.2834C14.4941 14.4657 14.768 14.732 14.9605 15.0592L9.78931 18.102C10.1368 18.6925 10.6333 19.177 11.2245 19.5102L14.1707 14.2834ZM14.9605 15.0592C15.1532 15.3868 15.2565 15.7619 15.2566 16.1463L9.25659 16.1483C9.25682 16.8371 9.44167 17.5112 9.78931 18.102L14.9605 15.0592ZM15.2566 16.1473L15.2566 6.64856H9.25659L9.25659 16.1473H15.2566ZM15.2566 6.64856C15.2566 7.22815 15.0229 7.77582 14.6201 8.17333L10.4057 3.90258C9.67468 4.62397 9.25659 5.61092 9.25659 6.64856H15.2566ZM14.6201 8.17333C14.2186 8.5695 13.6825 8.78503 13.1317 8.78503V2.78503C12.1167 2.78503 11.1354 3.18253 10.4057 3.90258L14.6201 8.17333Z" fill="white" mask="url(#path-5-inside-3_23_7)"/>
</svg>
